/vscmnt/brussel_pixiu_data/_data_brussel/112/vsc11236/PredSimResults/SUBJ07mtu3D/worker8.mot
version=1
nRows=4
nColumns=50
inDegrees=yes
endheader
                time	         pelvis_tilt	         pelvis_list	     pelvis_rotation	           pelvis_tx	           pelvis_ty	           pelvis_tz	       hip_flexion_r	     hip_adduction_r	      hip_rotation_r	        knee_angle_r	       ankle_angle_r	         mtp_angle_r	       hip_flexion_l	     hip_adduction_l	      hip_rotation_l	        knee_angle_l	       ankle_angle_l	         mtp_angle_l	    lumbar_extension	      lumbar_bending	     lumbar_rotation	 ercspn_r/activation	 intobl_r/activation	 extobl_r/activation	    abd_r/activation	    add_r/activation	hamstrings_r/activation	bifemsh_r/activation	glut_max_r/activation	iliopsoas_r/activation	rect_fem_r/activation	  vasti_r/activation	gastroc_r/activation	 soleus_r/activation	tib_ant_r/activation	 ercspn_l/activation	 intobl_l/activation	 extobl_l/activation	    abd_l/activation	    add_l/activation	hamstrings_l/activation	bifemsh_l/activation	glut_max_l/activation	iliopsoas_l/activation	rect_fem_l/activation	  vasti_l/activation	gastroc_l/activation	 soleus_l/activation	tib_ant_l/activation	
          1.10276118	         -3.71968015	          0.02904842	          8.45116997	          1.34536864	          0.85019487	         -0.01325956	         30.07582001	         -2.26520759	         -4.05533542	         -7.89757219	          3.81971546	          0.26611078	        -14.77719519	          0.45622977	          4.19670576	         -9.12036009	          8.16840955	         27.66710702	        -10.59666330	         -1.66592930	         -1.53256923	          0.12378579	          0.14248303	          0.00999999	          0.02184415	          0.12838705	          0.05850997	          0.09472148	          0.08135377	          0.02414962	          0.01183793	          0.00999999	          0.00999999	          0.00999999	          0.38212839	          0.13642302	          0.00999999	          0.00999999	          0.03725749	          0.01106262	          0.01425531	          0.13410585	          0.01658930	          0.20446925	          0.01183793	          0.01069630	          0.12490168	          0.28409539	          0.01963828	
          1.11378879	         -3.72404905	          0.08480921	          8.43883088	          1.36112181	          0.84871500	         -0.01309691	         29.76478867	         -2.04969412	         -3.63791158	         -9.19300521	          3.49996625	          0.24871728	        -15.23125042	          0.41843543	          3.83667373	        -10.19017277	          7.21087558	         29.24621803	        -10.47701245	         -1.26744757	         -1.74165377	          0.10456704	          0.13035845	          0.00999999	          0.01845267	          0.10845392	          0.05653448	          0.09442614	          0.12974746	          0.02040020	          0.00999999	          0.00999999	          0.01658926	          0.01183792	          0.40992468	          0.15193928	          0.00999999	          0.00999999	          0.03147296	          0.02399311	          0.01204207	          0.11328483	          0.01401368	          0.17272375	          0.01000000	          0.00999999	          0.10550968	          0.26537971	          0.01658928	
          1.12481640	         -3.72113446	          0.13813633	          8.37455175	          1.37702867	          0.84744423	         -0.01284801	         29.38264775	         -1.88194713	         -3.24196266	        -10.42451304	          3.11551355	          0.24580271	        -15.54287793	          0.39261302	          3.43472918	        -11.53424332	          6.14185356	         30.76421273	        -10.35028528	         -0.86533661	         -1.94173366	          0.14006456	          0.11011925	          0.00999999	          0.10278167	          0.12416914	          0.05225971	          0.08730478	          0.13055382	          0.01723290	          0.00999999	          0.00999999	          0.01401365	          0.00999999	          0.47018741	          0.16514291	          0.00999999	          0.00999999	          0.02658653	          0.02026798	          0.01017246	          0.09569645	          0.01183794	          0.14590699	          0.01000002	          0.00999999	          0.08912845	          0.24312082	          0.01401366	
          1.13584401	         -3.71252296	          0.20730535	          8.26156974	          1.39289918	          0.84654434	         -0.01250091	         29.01919957	         -1.73273692	         -2.92162740	        -11.66900162	          2.66638346	          0.22747795	        -15.63422681	          0.39842348	          3.00155616	        -13.25905405	          4.93638404	         32.16127849	        -10.23751950	         -0.48023751	         -2.13086506	          0.14656449	          0.09302234	          0.00999999	          0.14765562	          0.14750661	          0.04465049	          0.07375001	          0.15055533	          0.01455736	          0.00999999	          0.00999999	          0.01183791	          0.00999999	          0.49231039	          0.19970389	          0.00999999	          0.00999999	          0.02245875	          0.02077466	          0.01000015	          0.08083880	          0.01000001	          0.12325375	          0.01000000	          0.00999999	          0.07529054	          0.21038995	          0.01183792	
